<svg xmlns="http://www.w3.org/2000/svg" xmlns:xlink="http://www.w3.org/1999/xlink" width="1250" height="250" viewBox="0 0 250 50">
  <defs>
    <clipPath id="clip-path">
      <rect id="WhatsApp_Image_2021-09-05_at_4.57.59_PM" data-name="WhatsApp Image 2021-09-05 at 4.57.59 PM" width="250" height="50" transform="translate(-14528 -13812)" fill="#fff"/>
    </clipPath>
  </defs>
  <g id="Mask_Group_33" data-name="Mask Group 33" transform="translate(14528 13812)" clip-path="url(#clip-path)">
    <g id="Group_1232" data-name="Group 1232" transform="translate(-14762.564 -14120.627)">
      <text id="Sketshare" transform="translate(609.436 595)"  fill="#0d66c2" font-size="249" font-family="Philosopher-Bold, Philosopher" font-weight="700"><tspan x="0" y="0">Sketshare</tspan></text>
      <path id="Path_3" data-name="Path 3" d="M138.583,0A138.583,138.583,0,1,1,0,138.583,138.583,138.583,0,0,1,138.583,0Z" transform="translate(234.564 371.627)" fill="#0d66c2"/>
      <path id="Path_2" data-name="Path 2" d="M202.7,0a138.583,138.583,0,1,1,0,277.166c-56.638,0,14.354-11.982,31.025-62.317,5.83-17.6-33.641-81.856-33.641-81.856s-21.762-37.906-27.826-54.8C161.487,50.016,146.6,0,202.7,0Z" transform="translate(170.45 371.627)" fill="#0d66c2"/>
      <g id="Group_53" data-name="Group 53" transform="translate(262.693 371)">
        <path id="Path_1" data-name="Path 1" d="M281.476,415.34c44.172-43.207,130.906-23.67,168.034,20.26,28.866,42.733-34.738,50.105-84.164,20.884-26.854-15.874-43.238-2.176-34.02,11.249,14.376,20.935,51.489,35.116,83.788,64.516,19.7,17.808,43.763,70.365-.809,113.564-44.172,43.207-132,24.912-171.073-23.84-21.073-32.278,23.684-50.382,79.668-20.094,20.65,11.173,43.076,8.559,41.552-8.459-2.219-24.8-51.085-35.1-83.384-64.5C261.374,511.106,237.3,458.549,281.476,415.34Z" transform="translate(-237.924 -391.143)" fill="#fff"/>
      </g>
      <circle id="Ellipse_2" data-name="Ellipse 2" cx="30" cy="30" r="30" transform="translate(427.315 591.359)" fill="#0d66c2"/>
      <circle id="Ellipse_4" data-name="Ellipse 4" cx="30" cy="30" r="30" transform="translate(262.693 370.627)" fill="#0d66c2"/>
    </g>
  </g>
</svg>
